<svg width="26" height="26" viewBox="0 0 26 26" fill="none" xmlns="http://www.w3.org/2000/svg">
<g clip-path="url(#clip0_33_174249)">
<path d="M24.1872 18.9799C24.1364 18.7998 24.0176 18.6464 23.856 18.5521C23.6943 18.4578 23.5023 18.4299 23.3205 18.4744L21.5222 18.9583C22.5062 17.5077 23.1029 15.8295 23.2555 14.0833C23.403 12.4495 23.1641 10.804 22.5582 9.27962C21.9522 7.75527 20.9961 6.39484 19.7672 5.30827C19.6251 5.19077 19.4435 5.13205 19.2595 5.14413C19.0756 5.15622 18.9032 5.23819 18.7777 5.37327C18.6515 5.517 18.5874 5.70496 18.5996 5.89588C18.6118 6.08679 18.6992 6.26508 18.8427 6.3916C19.9017 7.32633 20.7255 8.49738 21.2475 9.80987C21.7695 11.1224 21.9749 12.5394 21.8472 13.946C21.7235 15.4277 21.2265 16.8539 20.4027 18.0916L20.2222 16.2788C20.2358 16.1721 20.2254 16.0638 20.1918 15.9616C20.1582 15.8594 20.1022 15.7661 20.0278 15.6883C19.9535 15.6106 19.8628 15.5504 19.7622 15.5122C19.6617 15.474 19.5539 15.4588 19.4467 15.4676C19.3395 15.4764 19.2356 15.509 19.1427 15.5631C19.0497 15.6171 18.97 15.6913 18.9093 15.7801C18.8487 15.8689 18.8086 15.9702 18.7921 16.0764C18.7756 16.1827 18.783 16.2913 18.8138 16.3944L19.175 21.0455L23.6888 19.8466C23.8677 19.7943 24.0193 19.6749 24.1122 19.5134C24.2051 19.3519 24.2319 19.1608 24.1872 18.9799Z" fill="white"/>
<path d="M3.11255 12.3356C3.20854 12.3973 3.31711 12.4368 3.43033 12.4512C3.61881 12.4759 3.80945 12.4253 3.96088 12.3104C4.1123 12.1955 4.21232 12.0255 4.23922 11.8373C4.53764 9.63389 5.65741 7.62456 7.37431 6.21167C9.09121 4.79878 11.2785 4.08663 13.4981 4.21783L11.8803 5.32283C11.7659 5.40907 11.6796 5.52741 11.6326 5.66279C11.5856 5.79817 11.58 5.94448 11.6164 6.0831C11.6528 6.22171 11.7296 6.34636 11.837 6.44119C11.9445 6.53602 12.0777 6.59674 12.2198 6.61561C12.3825 6.63049 12.5454 6.58975 12.682 6.50006L16.5314 3.85672L13.2381 0.548945C13.1795 0.459145 13.1016 0.383522 13.0102 0.327566C12.9187 0.27161 12.8159 0.236725 12.7093 0.225444C12.6026 0.214162 12.4948 0.226768 12.3937 0.262346C12.2925 0.297923 12.2005 0.35558 12.1244 0.431129C12.0483 0.506679 11.99 0.598226 11.9537 0.699123C11.9174 0.80002 11.904 0.907737 11.9145 1.01445C11.9251 1.12117 11.9592 1.2242 12.0145 1.31608C12.0698 1.40795 12.1448 1.48636 12.2342 1.54561L13.462 2.77339C10.8987 2.65083 8.38261 3.49371 6.41042 5.13564C4.43823 6.77757 3.15327 9.09923 2.80922 11.6423C2.7907 11.7746 2.80925 11.9095 2.8628 12.0319C2.91635 12.1543 3.00281 12.2594 3.11255 12.3356Z" fill="white"/>
<path d="M15.694 21.6162C14.5662 21.9764 13.3766 22.1018 12.1985 21.9845C10.7637 21.8439 9.38467 21.3562 8.1805 20.5634C6.97633 19.7707 5.98318 18.6969 5.28681 17.4345L7.08514 18.1062C7.25091 18.1349 7.42152 18.1049 7.56751 18.0213C7.71351 17.9377 7.82573 17.8057 7.8848 17.6482C7.94388 17.4907 7.9461 17.3174 7.89108 17.1584C7.83607 16.9994 7.72727 16.8646 7.58347 16.7773L4.26847 15.5495L3.20681 15.1667L2.40514 19.7529C2.37735 19.9361 2.42108 20.1231 2.52728 20.275C2.63349 20.4269 2.79403 20.5321 2.9757 20.569H3.09847C3.26846 20.5721 3.43408 20.5151 3.56619 20.4081C3.6983 20.3011 3.78842 20.1509 3.8207 19.984L4.12403 18.2506C4.94088 19.6816 6.08823 20.8963 7.47028 21.7934C8.85232 22.6904 10.4289 23.2438 12.0685 23.4073C13.4392 23.5431 14.8233 23.3956 16.1346 22.974C16.3016 22.9048 16.4365 22.7756 16.5129 22.6118C16.5892 22.448 16.6014 22.2615 16.547 22.0892C16.4926 21.9169 16.3755 21.7712 16.2189 21.681C16.0624 21.5907 15.8776 21.5625 15.7012 21.6017L15.694 21.6162Z" fill="white"/>
<path d="M15.8887 9.38892H10.1109C9.91935 9.38892 9.73565 9.46501 9.60021 9.60045C9.46476 9.73589 9.38867 9.91959 9.38867 10.1111V15.8889C9.38867 16.0805 9.46476 16.2642 9.60021 16.3996C9.73565 16.535 9.91935 16.6111 10.1109 16.6111H15.8887C16.0802 16.6111 16.2639 16.535 16.3994 16.3996C16.5348 16.2642 16.6109 16.0805 16.6109 15.8889V10.1111C16.6109 9.91959 16.5348 9.73589 16.3994 9.60045C16.2639 9.46501 16.0802 9.38892 15.8887 9.38892ZM15.1665 15.1667H10.8331V10.8334H15.1665V15.1667Z" fill="white"/>
</g>
<defs>
<clipPath id="clip0_33_174249">
<rect width="26" height="26" fill="white"/>
</clipPath>
</defs>
</svg>
